<svg id="Group_9" data-name="Group 9" xmlns="http://www.w3.org/2000/svg" width="229.958" height="63.971" viewBox="0 0 229.958 63.971">
  <path id="Path_33" data-name="Path 33" d="M939.751,2544.009a78.871,78.871,0,0,0-7.294,9.712c-.744,1.151-1.435,2.322-2.105,3.5s-1.351,2.349-1.978,3.562a79,79,0,0,0-4.769,11.18,82.9,82.9,0,0,0-3.758,16.26l21.5-12.387a66.835,66.835,0,0,1,4.435-9.687l.012,0,0-.015a66.565,66.565,0,0,1,6.169-8.66v-24.845a83.149,83.149,0,0,0-12.212,11.385" transform="translate(-756.424 -2532.62)" fill="#529c44"/>
  <path id="Path_34" data-name="Path 34" d="M999.418,2557.461a66.052,66.052,0,0,1,6.185,8.664l0,.014,0,0a66.789,66.789,0,0,1,4.434,9.687l21.5,12.386a82.9,82.9,0,0,0-3.757-16.259,78.909,78.909,0,0,0-4.771-11.181c-.633-1.213-1.3-2.4-1.978-3.561s-1.364-2.344-2.1-3.5a79.062,79.062,0,0,0-7.293-9.712,83.167,83.167,0,0,0-12.226-11.39Z" transform="translate(-801.588 -2532.614)" fill="#0095b6"/>
  <path id="Path_35" data-name="Path 35" d="M944.168,2636.97a66.861,66.861,0,0,0,10.606,1l.017,0h.009a66.194,66.194,0,0,0,10.6-1.025l21.51,12.382a83.247,83.247,0,0,1-15.964,4.915,79.713,79.713,0,0,1-12.059,1.483c-1.365.064-2.723.084-4.076.074-1.346.016-2.712,0-4.078-.06a80.547,80.547,0,0,1-12.055-1.422,83.484,83.484,0,0,1-15.995-4.866Z" transform="translate(-758.033 -2591.828)" fill="#8c5316"/>
  <path id="Path_36" data-name="Path 36" d="M961.587,2657.116a4.325,4.325,0,0,1-2.772-1.488l1.018-1.124a3.807,3.807,0,0,0,1.906,1.045c.848.139,1.465-.187,1.572-.826a.9.9,0,0,0-.144-.655c-.45-.637-1.973-1.1-2.734-2.17a2.27,2.27,0,0,1-.413-1.762c.262-1.566,1.7-2.374,3.446-2.077a4.052,4.052,0,0,1,2.583,1.408l-1.042,1.047a3.385,3.385,0,0,0-1.675-.952c-.768-.127-1.378.147-1.471.7a.666.666,0,0,0,.135.558c.346.482,2.07,1.177,2.822,2.23a2.226,2.226,0,0,1,.393,1.823c-.277,1.641-1.718,2.567-3.625,2.246" transform="translate(-778.542 -2598.105)" fill="#fff"/>
  <path id="Path_37" data-name="Path 37" d="M982.295,2659.4l-.536-1.878-3.166-.2-.758,1.793-1.88-.112,3.732-8.608,1.87.116,2.672,9Zm-1.816-6.952-1.336,3.469,2.221.134Z" transform="translate(-788.27 -2599.466)" fill="#fff"/>
  <path id="Path_38" data-name="Path 38" d="M1000.768,2659.432a4.35,4.35,0,0,1-3.015-.908l.774-1.3a3.837,3.837,0,0,0,2.083.64c.855-.034,1.393-.485,1.368-1.131a.931.931,0,0,0-.272-.61c-.569-.535-2.158-.686-3.116-1.574a2.277,2.277,0,0,1-.763-1.641c-.066-1.58,1.179-2.661,2.952-2.727a4.075,4.075,0,0,1,2.813.854l-.8,1.238a3.4,3.4,0,0,0-1.842-.6c-.781.027-1.322.42-1.293.975a.666.666,0,0,0,.237.524c.442.4,2.266.732,3.211,1.61a2.2,2.2,0,0,1,.758,1.71c.067,1.661-1.156,2.857-3.095,2.932" transform="translate(-800.643 -2599.344)" fill="#fff"/>
  <path id="Path_39" data-name="Path 39" d="M1019.778,2657.6c-2.534.381-4.555-1.242-4.969-4a4.309,4.309,0,1,1,8.507-1.288c.427,2.826-1.054,4.911-3.538,5.288m-1.231-7.624c-1.394.217-2.118,1.642-1.843,3.456.269,1.834,1.5,2.822,2.869,2.611,1.8-.276,2.085-2.061,1.874-3.46-.259-1.726-1.435-2.821-2.9-2.606" transform="translate(-810.286 -2598.334)" fill="#fff"/>
  <path id="Path_40" data-name="Path 40" d="M961.587,2657.116a4.325,4.325,0,0,1-2.772-1.488l1.018-1.124a3.807,3.807,0,0,0,1.906,1.045c.848.139,1.465-.187,1.572-.826a.9.9,0,0,0-.144-.655c-.45-.637-1.973-1.1-2.734-2.17a2.27,2.27,0,0,1-.413-1.762c.262-1.566,1.7-2.374,3.446-2.077a4.052,4.052,0,0,1,2.583,1.408l-1.042,1.047a3.385,3.385,0,0,0-1.675-.952c-.768-.127-1.378.147-1.471.7a.666.666,0,0,0,.135.558c.346.482,2.07,1.177,2.822,2.23a2.226,2.226,0,0,1,.393,1.823c-.277,1.641-1.718,2.567-3.625,2.246" transform="translate(-778.542 -2598.105)" fill="#fff"/>
  <path id="Path_41" data-name="Path 41" d="M982.295,2659.4l-.536-1.878-3.166-.2-.758,1.793-1.88-.112,3.732-8.608,1.87.116,2.672,9Zm-1.816-6.952-1.336,3.469,2.221.134Z" transform="translate(-788.27 -2599.466)" fill="#fff"/>
  <path id="Path_42" data-name="Path 42" d="M1000.768,2659.432a4.35,4.35,0,0,1-3.015-.908l.774-1.3a3.837,3.837,0,0,0,2.083.64c.855-.034,1.393-.485,1.368-1.131a.931.931,0,0,0-.272-.61c-.569-.535-2.158-.686-3.116-1.574a2.277,2.277,0,0,1-.763-1.641c-.066-1.58,1.179-2.661,2.952-2.727a4.075,4.075,0,0,1,2.813.854l-.8,1.238a3.4,3.4,0,0,0-1.842-.6c-.781.027-1.322.42-1.293.975a.666.666,0,0,0,.237.524c.442.4,2.266.732,3.211,1.61a2.2,2.2,0,0,1,.758,1.71c.067,1.661-1.156,2.857-3.095,2.932" transform="translate(-800.643 -2599.344)" fill="#fff"/>
  <path id="Path_43" data-name="Path 43" d="M1019.778,2657.6c-2.534.381-4.555-1.242-4.969-4a4.309,4.309,0,1,1,8.507-1.288c.427,2.826-1.054,4.911-3.538,5.288m-1.231-7.624c-1.394.217-2.118,1.642-1.843,3.456.269,1.834,1.5,2.822,2.869,2.611,1.8-.276,2.085-2.061,1.874-3.46-.259-1.726-1.435-2.821-2.9-2.606" transform="translate(-810.286 -2598.334)" fill="#fff"/>
  <path id="Path_44" data-name="Path 44" d="M541.909,2644.928l.343-2.08a8.752,8.752,0,0,0,3.8.887,4.258,4.258,0,0,0,2.115-.459,1.726,1.726,0,0,0,.28-2.844,11.69,11.69,0,0,0-2.4-1.406,13.193,13.193,0,0,1-2.863-1.713,3.083,3.083,0,0,1-1.119-2.355,3.5,3.5,0,0,1,1.493-3.119,6.078,6.078,0,0,1,3.515-.886,8.26,8.26,0,0,1,3.578.8l-.342,1.988a8.261,8.261,0,0,0-3.3-.856q-2.7,0-2.706,1.8a1.381,1.381,0,0,0,.576,1.085,12.335,12.335,0,0,0,2.223,1.269,12.894,12.894,0,0,1,2.956,1.743,3.253,3.253,0,0,1,1.213,2.508,3.949,3.949,0,0,1-1.712,3.455,6.037,6.037,0,0,1-3.515.949,10.252,10.252,0,0,1-4.138-.764" transform="translate(-541.909 -2588.43)" fill="#58595b"/>
  <path id="Path_45" data-name="Path 45" d="M576.991,2649.634l.249,1.161a3.834,3.834,0,0,1-1.649.336,1.859,1.859,0,0,1-1.245-.4,1.336,1.336,0,0,1-.467-1.07,3.188,3.188,0,0,1-2.987,1.467q-3.3,0-3.3-2.966a3.017,3.017,0,0,1,1.587-2.844,6.17,6.17,0,0,1,3.017-.642,14.345,14.345,0,0,1,1.68.122v-.948a1.29,1.29,0,0,0-.544-1.193,3.991,3.991,0,0,0-1.944-.336,8.731,8.731,0,0,0-3.05.551l.342-1.682a9.137,9.137,0,0,1,3.3-.55,4.248,4.248,0,0,1,3.079.886,3.925,3.925,0,0,1,.871,2.874v4.74q0,.551.528.55a1.807,1.807,0,0,0,.53-.06m-3.112-2.386v-1.009q-1.026-.092-1.493-.092a3.592,3.592,0,0,0-1.992.428,1.552,1.552,0,0,0-.621,1.376q0,1.5,1.835,1.5a2.247,2.247,0,0,0,1.619-.627,2.09,2.09,0,0,0,.652-1.575" transform="translate(-556.489 -2593.931)" fill="#58595b"/>
  <path id="Path_46" data-name="Path 46" d="M603.592,2649.873l.218,1.162a3.471,3.471,0,0,1-1.649.336,1.812,1.812,0,0,1-1.245-.413,1.385,1.385,0,0,1-.466-1.086,6.182,6.182,0,0,1-1.711,1.086,4.55,4.55,0,0,1-1.773.413,3.381,3.381,0,0,1-2.4-.672,3.823,3.823,0,0,1-.716-2.63v-7h2.084v6.789a2.272,2.272,0,0,0,.265,1.315,1.278,1.278,0,0,0,1.042.336,4.556,4.556,0,0,0,1.789-.443,3.447,3.447,0,0,0,1.415-.994v-7H602.5v8.317q0,.551.529.551a2.086,2.086,0,0,0,.56-.061" transform="translate(-571.393 -2594.171)" fill="#58595b"/>
  <path id="Path_47" data-name="Path 47" d="M631.155,2644.454l.28,1.162a4.184,4.184,0,0,1-1.68.336,1.842,1.842,0,0,1-1.26-.4,1.389,1.389,0,0,1-.451-1.1q-.684,1.5-3.422,1.5a3.675,3.675,0,0,1-2.924-1.254,5.845,5.845,0,0,1-1.151-3.945,5.758,5.758,0,0,1,1.244-3.945,4.2,4.2,0,0,1,3.329-1.345,9.489,9.489,0,0,1,2.925.4v-4.342H630.1v12.446q0,.55.529.551a1.959,1.959,0,0,0,.529-.061m-3.111-2.905v-4.006a8.858,8.858,0,0,0-2.427-.4,2.707,2.707,0,0,0-2.209.8,4.284,4.284,0,0,0-.653,2.69,4.844,4.844,0,0,0,.591,2.783,2.2,2.2,0,0,0,1.929.8,2.576,2.576,0,0,0,2.769-2.661" transform="translate(-586.543 -2588.751)" fill="#58595b"/>
  <path id="Path_48" data-name="Path 48" d="M652.114,2631.742a1.283,1.283,0,0,1-.372.933,1.25,1.25,0,0,1-.934.382,1.312,1.312,0,0,1-.933-.382,1.167,1.167,0,0,1-.4-.872,1.37,1.37,0,0,1,1.337-1.346,1.289,1.289,0,0,1,1.306,1.285m.747,12.11.28,1.162a3.63,3.63,0,0,1-1.711.336,1.749,1.749,0,0,1-1.229-.412,1.4,1.4,0,0,1-.452-1.086v-8.807h2.084v8.317q0,.551.5.551a1.955,1.955,0,0,0,.529-.061" transform="translate(-602.961 -2588.149)" fill="#58595b"/>
  <path id="Path_49" data-name="Path 49" d="M679.975,2644.928l.342-2.08a8.752,8.752,0,0,0,3.8.887,4.258,4.258,0,0,0,2.115-.459,1.689,1.689,0,0,0,.9-1.559,1.673,1.673,0,0,0-.622-1.285,11.693,11.693,0,0,0-2.4-1.406,13.2,13.2,0,0,1-2.863-1.713,3.082,3.082,0,0,1-1.119-2.355,3.5,3.5,0,0,1,1.493-3.119,6.078,6.078,0,0,1,3.515-.886,8.26,8.26,0,0,1,3.578.8l-.342,1.988a8.26,8.26,0,0,0-3.3-.856q-2.706,0-2.706,1.8a1.382,1.382,0,0,0,.576,1.085,12.314,12.314,0,0,0,2.224,1.269,12.928,12.928,0,0,1,2.956,1.743,3.253,3.253,0,0,1,1.213,2.508,3.949,3.949,0,0,1-1.711,3.455,6.037,6.037,0,0,1-3.515.949,10.252,10.252,0,0,1-4.138-.764" transform="translate(-620.274 -2588.43)" fill="#58595b"/>
  <path id="Path_50" data-name="Path 50" d="M710.366,2644.99l.311,1.529a7.027,7.027,0,0,1-2.3.4,2.037,2.037,0,0,1-1.649-.6,3.139,3.139,0,0,1-.5-2v-6.086H704.58l.342-1.62h1.306v-2.722l2.054-.673v3.4h2.146v1.62h-2.146v5.841a1.49,1.49,0,0,0,.2.933,1.155,1.155,0,0,0,.855.229,2.3,2.3,0,0,0,1.027-.244" transform="translate(-634.24 -2589.715)" fill="#58595b"/>
  <path id="Path_51" data-name="Path 51" d="M731.6,2649.634l.25,1.161a3.845,3.845,0,0,1-1.65.336,1.86,1.86,0,0,1-1.245-.4,1.338,1.338,0,0,1-.466-1.07,3.188,3.188,0,0,1-2.986,1.467q-3.3,0-3.3-2.966a3.019,3.019,0,0,1,1.587-2.844,6.172,6.172,0,0,1,3.017-.642,14.353,14.353,0,0,1,1.681.122v-.948a1.289,1.289,0,0,0-.545-1.193,3.989,3.989,0,0,0-1.944-.336,8.719,8.719,0,0,0-3.048.551l.342-1.682a9.131,9.131,0,0,1,3.3-.55,4.25,4.25,0,0,1,3.081.886,3.927,3.927,0,0,1,.871,2.874v4.74q0,.551.528.55a1.8,1.8,0,0,0,.529-.06m-3.111-2.386v-1.009q-1.026-.092-1.493-.092a3.592,3.592,0,0,0-1.992.428,1.55,1.55,0,0,0-.622,1.376q0,1.5,1.835,1.5a2.243,2.243,0,0,0,1.619-.627,2.091,2.091,0,0,0,.653-1.575" transform="translate(-644.244 -2593.931)" fill="#58595b"/>
  <path id="Path_52" data-name="Path 52" d="M758.359,2649.632l.249,1.162a3.547,3.547,0,0,1-1.68.336,1.856,1.856,0,0,1-1.244-.4,1.369,1.369,0,0,1-.467-1.1v-5.5a2.113,2.113,0,0,0-.279-1.285,1.286,1.286,0,0,0-1.026-.336,4.458,4.458,0,0,0-1.711.428,5.661,5.661,0,0,0-1.649,1.039v7h-2.085v-10.152h2.085v1.345a6.229,6.229,0,0,1,1.772-1.085,4.979,4.979,0,0,1,1.9-.444,3.26,3.26,0,0,1,2.366.673,3.827,3.827,0,0,1,.715,2.629v5.2q0,.55.5.551a2.112,2.112,0,0,0,.56-.061" transform="translate(-659.149 -2593.929)" fill="#58595b"/>
  <path id="Path_53" data-name="Path 53" d="M786.2,2644.454l.279,1.162a4.181,4.181,0,0,1-1.68.336,1.842,1.842,0,0,1-1.26-.4,1.389,1.389,0,0,1-.452-1.1q-.684,1.5-3.422,1.5a3.674,3.674,0,0,1-2.924-1.254,5.846,5.846,0,0,1-1.152-3.945,5.758,5.758,0,0,1,1.245-3.945,4.2,4.2,0,0,1,3.329-1.345,9.479,9.479,0,0,1,2.924.4v-4.342h2.055v12.446q0,.55.527.551a1.961,1.961,0,0,0,.53-.061m-3.112-2.905v-4.006a8.85,8.85,0,0,0-2.427-.4,2.7,2.7,0,0,0-2.208.8,4.278,4.278,0,0,0-.653,2.69,4.841,4.841,0,0,0,.591,2.783,2.195,2.195,0,0,0,1.929.8,2.574,2.574,0,0,0,2.768-2.661" transform="translate(-674.544 -2588.751)" fill="#58595b"/>
  <path id="Path_54" data-name="Path 54" d="M813.259,2649.634l.249,1.161a3.837,3.837,0,0,1-1.648.336,1.861,1.861,0,0,1-1.245-.4,1.335,1.335,0,0,1-.466-1.07,3.187,3.187,0,0,1-2.986,1.467q-3.3,0-3.3-2.966a3.019,3.019,0,0,1,1.587-2.844,6.174,6.174,0,0,1,3.018-.642,14.365,14.365,0,0,1,1.679.122v-.948a1.289,1.289,0,0,0-.544-1.193,3.992,3.992,0,0,0-1.945-.336,8.72,8.72,0,0,0-3.048.551l.342-1.682a9.131,9.131,0,0,1,3.3-.55,4.25,4.25,0,0,1,3.081.886,3.927,3.927,0,0,1,.871,2.874v4.74q0,.551.528.55a1.808,1.808,0,0,0,.529-.06m-3.111-2.386v-1.009q-1.027-.092-1.493-.092a3.589,3.589,0,0,0-1.992.428,1.552,1.552,0,0,0-.622,1.376q0,1.5,1.836,1.5a2.242,2.242,0,0,0,1.617-.627,2.09,2.09,0,0,0,.653-1.575" transform="translate(-690.592 -2593.931)" fill="#58595b"/>
  <path id="Path_55" data-name="Path 55" d="M832.208,2650.979h-2.085v-10.152h2.085v1.314a2.56,2.56,0,0,1,.824-1.085,1.809,1.809,0,0,1,1.1-.413,3.985,3.985,0,0,1,1.929.551l-.373,1.682a5.559,5.559,0,0,0-1.712-.306q-1.025,0-1.772,1.345Z" transform="translate(-705.497 -2593.931)" fill="#58595b"/>
  <path id="Path_56" data-name="Path 56" d="M857.281,2644.454l.279,1.162a4.186,4.186,0,0,1-1.68.336,1.841,1.841,0,0,1-1.259-.4,1.386,1.386,0,0,1-.452-1.1q-.685,1.5-3.422,1.5a3.675,3.675,0,0,1-2.925-1.254,5.844,5.844,0,0,1-1.151-3.945,5.754,5.754,0,0,1,1.244-3.945,4.2,4.2,0,0,1,3.329-1.345,9.484,9.484,0,0,1,2.924.4v-4.342h2.054v12.446c0,.367.175.551.528.551a1.966,1.966,0,0,0,.53-.061m-3.112-2.905v-4.006a8.855,8.855,0,0,0-2.427-.4,2.707,2.707,0,0,0-2.209.8,4.286,4.286,0,0,0-.653,2.69,4.845,4.845,0,0,0,.591,2.783,2.2,2.2,0,0,0,1.929.8,2.575,2.575,0,0,0,2.769-2.661" transform="translate(-714.891 -2588.751)" fill="#58595b"/>
  <path id="Path_57" data-name="Path 57" d="M875.234,2650.671l.467-1.774a6.85,6.85,0,0,0,1.353.429,6.48,6.48,0,0,0,1.354.183q2.488,0,2.489-1.468a.971.971,0,0,0-.435-.81,7.6,7.6,0,0,0-1.711-.78,8.287,8.287,0,0,1-2.271-1.131,2.277,2.277,0,0,1-.934-1.866,2.386,2.386,0,0,1,1.058-2.08,5.259,5.259,0,0,1,3.018-.734,7.4,7.4,0,0,1,2.924.52l-.342,1.651a6.031,6.031,0,0,0-2.52-.55q-2.085,0-2.084,1.07a.8.8,0,0,0,.39.672,7.536,7.536,0,0,0,1.539.7,9.255,9.255,0,0,1,2.427,1.192,2.75,2.75,0,0,1-.373,4.5,5.109,5.109,0,0,1-2.8.734,11.957,11.957,0,0,1-3.547-.459" transform="translate(-731.102 -2593.929)" fill="#58595b"/>
  <path id="Path_58" data-name="Path 58" d="M553.044,2577.456a1.164,1.164,0,0,0,.864-.371,1.2,1.2,0,0,0,.362-.867,1.152,1.152,0,0,0-.362-.852,1.228,1.228,0,0,0-1.73,0,1.149,1.149,0,0,0-.362.852,1.2,1.2,0,0,0,.362.867,1.162,1.162,0,0,0,.865.371" transform="translate(-547.532 -2556.677)" fill="#58595b"/>
  <path id="Path_59" data-name="Path 59" d="M545.872,2577.456a1.165,1.165,0,0,0,.864-.371,1.2,1.2,0,0,0,.362-.867,1.152,1.152,0,0,0-.362-.852,1.19,1.19,0,0,0-.864-.356,1.245,1.245,0,0,0-.882.356,1.132,1.132,0,0,0-.377.852,1.182,1.182,0,0,0,.377.867,1.217,1.217,0,0,0,.882.371" transform="translate(-543.444 -2556.677)" fill="#58595b"/>
  <path id="Path_60" data-name="Path 60" d="M554.322,2595.922a3.189,3.189,0,0,0,1.227-2.756v-6.843h-2.014v6.936q0,1.363-1.479,1.362h-2.222v-8.3h-4a3.745,3.745,0,0,0-2.391.743,3.368,3.368,0,0,0-1.165,2.756v3.282a3.493,3.493,0,0,0,.818,2.446,3.846,3.846,0,0,0,2.958,1.052h.756l.975-1.3v1.3h4.11a4.046,4.046,0,0,0,2.423-.681m-6.533-1.3H545.9a1.739,1.739,0,0,1-1.212-.34,1.523,1.523,0,0,1-.362-1.146v-3.375a1.283,1.283,0,0,1,1.448-1.455h2.014Z" transform="translate(-542.121 -2563.099)" fill="#58595b"/>
  <path id="Path_61" data-name="Path 61" d="M560.279,2617.043a1.191,1.191,0,0,0-.865.355,1.222,1.222,0,0,0-.017,1.719,1.208,1.208,0,0,0,.882.341,1.194,1.194,0,0,0,.865-.356,1.184,1.184,0,0,0,0-1.7,1.194,1.194,0,0,0-.865-.355" transform="translate(-551.639 -2580.535)" fill="#58595b"/>
  <path id="Path_62" data-name="Path 62" d="M567.513,2617.043a1.227,1.227,0,0,0-.9.355,1.15,1.15,0,0,0-.362.852,1.135,1.135,0,0,0,.362.867,1.255,1.255,0,0,0,.9.341,1.146,1.146,0,0,0,.851-.356,1.185,1.185,0,0,0,.346-.852,1.227,1.227,0,0,0-1.2-1.208" transform="translate(-555.728 -2580.535)" fill="#58595b"/>
  <path id="Path_63" data-name="Path 63" d="M579.743,2586.323h-1.479v1.982h1.353q2.958,0,2.958,2.972v1.951q0,1.394-1.478,1.393h-4.6v1.982h4.438a3.645,3.645,0,0,0,2.769-.991,3.2,3.2,0,0,0,.85-2.291v-2.261a4.526,4.526,0,0,0-1.322-3.375,4.775,4.775,0,0,0-3.492-1.362" transform="translate(-561.543 -2563.099)" fill="#58595b"/>
  <path id="Path_64" data-name="Path 64" d="M639.923,2587.617a1.575,1.575,0,0,1-.361,1.176,1.8,1.8,0,0,1-1.244.34h-1.511v-8.3h-2.013v8.3H631.3v-8.3h-2.014v8.3h-3.524v-8.3H623.78v8.3h-6.351a28.356,28.356,0,0,1,3.336-3.1v-.247a4.943,4.943,0,0,0-1.322-3.593,5,5,0,0,0-3.745-1.486,5.2,5.2,0,0,0-3.368,1.115,4.751,4.751,0,0,0-1.667,3.9v.309a27.886,27.886,0,0,1,3.3,3.1h-6.13v-8.3h-4a3.66,3.66,0,0,0-2.518.835,3.39,3.39,0,0,0-1.039,2.663v3.282a3.4,3.4,0,0,0,.912,2.539,3.921,3.921,0,0,0,2.864.96h1.73v.619q0,3-4.216,3h-.315l1.353,1.8a6.416,6.416,0,0,0,3.84-1.269,4.988,4.988,0,0,0,1.385-3.9v-.248h6.13a3.159,3.159,0,0,0,1.763-.588,3.221,3.221,0,0,0,1.731.588h20.92a3.687,3.687,0,0,0,2.581-.836,3.179,3.179,0,0,0,.975-2.508v-11.116h-2.014Zm-34.132,1.517h-1.573a2.548,2.548,0,0,1-1.51-.31,1.515,1.515,0,0,1-.378-1.207v-3.282a1.677,1.677,0,0,1,.33-1.162,1.474,1.474,0,0,1,1.118-.355h2.013Zm9.939-1.052a24.768,24.768,0,0,0-3.052-3.034,2.423,2.423,0,0,1,.944-1.642,3.332,3.332,0,0,1,2.108-.712,3.264,3.264,0,0,1,1.794.527,2.528,2.528,0,0,1,1.194,1.827,21.987,21.987,0,0,0-2.989,3.034" transform="translate(-575.042 -2557.612)" fill="#58595b"/>
  <path id="Path_65" data-name="Path 65" d="M701.767,2592.229l2.045-1.115v-14.46h-2.045Z" transform="translate(-632.643 -2557.611)" fill="#58595b"/>
  <path id="Path_66" data-name="Path 66" d="M732.045,2577.5a1.216,1.216,0,0,0,.881-.371,1.145,1.145,0,0,0,.377-.836,1.129,1.129,0,0,0-.377-.852,1.244,1.244,0,0,0-.881-.357,1.208,1.208,0,0,0,0,2.416" transform="translate(-649.15 -2556.718)" fill="#58595b"/>
  <path id="Path_67" data-name="Path 67" d="M726.428,2593.259q0,1.363-1.448,1.363h-7.565a1.478,1.478,0,0,1-1.1-.356,1.622,1.622,0,0,1-.346-1.16v-4.4l-2.046,1.3v3a3.264,3.264,0,0,0,3.651,3.59h7.25a3.767,3.767,0,0,0,2.644-.866,3.321,3.321,0,0,0,.975-2.571v-6.842h-2.013Z" transform="translate(-639.542 -2563.099)" fill="#58595b"/>
  <path id="Path_68" data-name="Path 68" d="M724.829,2577.456a1.166,1.166,0,0,0,.865-.371,1.2,1.2,0,0,0,.362-.867,1.151,1.151,0,0,0-.362-.852,1.191,1.191,0,0,0-.865-.356,1.243,1.243,0,0,0-.881.356,1.129,1.129,0,0,0-.378.852,1.18,1.18,0,0,0,.378.867,1.215,1.215,0,0,0,.881.371" transform="translate(-645.019 -2556.677)" fill="#58595b"/>
  <path id="Path_69" data-name="Path 69" d="M770.927,2577.456a1.165,1.165,0,0,0,.865-.371,1.2,1.2,0,0,0,.362-.867,1.151,1.151,0,0,0-.362-.852,1.19,1.19,0,0,0-.865-.356,1.243,1.243,0,0,0-.881.356,1.129,1.129,0,0,0-.378.852,1.18,1.18,0,0,0,.378.867,1.215,1.215,0,0,0,.881.371" transform="translate(-671.184 -2556.677)" fill="#58595b"/>
  <path id="Path_70" data-name="Path 70" d="M820.451,2592.229l2.046-1.115v-14.46h-2.046Z" transform="translate(-700.008 -2557.611)" fill="#58595b"/>
  <path id="Path_71" data-name="Path 71" d="M850.987,2587.617a1.578,1.578,0,0,1-.361,1.177,1.8,1.8,0,0,1-1.243.341H848.8v-4.924a3.327,3.327,0,0,0-1.007-2.57,3.878,3.878,0,0,0-2.738-.928,4.273,4.273,0,0,0-2.423.649,3.153,3.153,0,0,0-1.321,2.849v4.924h-3.493v-8.3h-4a3.659,3.659,0,0,0-2.518.835,3.388,3.388,0,0,0-1.038,2.663v3.282a3.4,3.4,0,0,0,.913,2.539,3.921,3.921,0,0,0,2.863.96h1.731v.619q0,3-4.217,3h-.314l1.353,1.8a6.409,6.409,0,0,0,3.839-1.269,4.986,4.986,0,0,0,1.385-3.9v-.248h3.525a2.882,2.882,0,0,0,1.164,1.8,4.063,4.063,0,0,0,2.549.774,4.23,4.23,0,0,0,2.485-.666,2.834,2.834,0,0,0,1.165-1.9h.743a3.685,3.685,0,0,0,2.58-.835,3.182,3.182,0,0,0,.975-2.508v-11.117h-2.014Zm-15.218,1.518H834.2a2.548,2.548,0,0,1-1.511-.31,1.517,1.517,0,0,1-.377-1.208v-3.282a1.676,1.676,0,0,1,.33-1.161,1.473,1.473,0,0,1,1.117-.356h2.014Zm11.046,1.083q0,1.517-1.763,1.517t-1.762-1.517v-6.038q0-1.518,1.762-1.518t1.763,1.518Z" transform="translate(-705.576 -2557.612)" fill="#58595b"/>
  <path id="Path_72" data-name="Path 72" d="M888,2576.656v15.575l2.046-1.115v-14.46Z" transform="translate(-738.348 -2557.612)" fill="#58595b"/>
  <path id="Path_73" data-name="Path 73" d="M778.86,2581.765a3.146,3.146,0,0,0-2.36-1.022,4.357,4.357,0,0,0-1.228.186l-4.784,1.672v-1.765h-1.982v8.3h-3.494v-8.3h-4.058a3.608,3.608,0,0,0-2.424.8,3.378,3.378,0,0,0-1.07,2.694v4.8H755.8q-1.1,0-1.1-1.27v-11.209h-2.045v11.3a3.085,3.085,0,0,0,3.147,3.158h8.168l.975-1.3v1.3h3.533v1.919l2.012-1.053v-.867h5.728a3.5,3.5,0,0,0,2.706-1.021,3.23,3.23,0,0,0,.819-2.261v-3.963a2.914,2.914,0,0,0-.881-2.106m-15.892,7.37h-3.462v-4.8q0-1.516,1.449-1.517h2.013Zm14.759-1.332q0,1.332-1.448,1.332h-5.791v-3.407a1.453,1.453,0,0,1,.2-.9,2.436,2.436,0,0,1,.96-.526l3.871-1.362a2.93,2.93,0,0,1,1.039-.217,1.055,1.055,0,0,1,.85.372,1.484,1.484,0,0,1,.314.99Z" transform="translate(-661.526 -2557.612)" fill="#58595b"/>
</svg>
