<svg id="Group_24" data-name="Group 24" xmlns="http://www.w3.org/2000/svg" width="112.516" height="118.239" viewBox="0 0 112.516 118.239">
  <g id="Group_1" data-name="Group 1" transform="translate(0 100.039)">
    <path id="Path_1" data-name="Path 1" d="M11.136,331.1,6.352,344.025H4.685L0,331.1H1.685l3.577,10.244a6.094,6.094,0,0,1,.261,1.144h.036a5.593,5.593,0,0,1,.3-1.162L9.506,331.1Z" transform="translate(0 -330.167)" fill="#59595c"/>
    <path id="Path_2" data-name="Path 2" d="M44.119,347.708H37.6a3.449,3.449,0,0,0,.829,2.378,2.856,2.856,0,0,0,2.18.838,4.534,4.534,0,0,0,2.865-1.027v1.387a5.354,5.354,0,0,1-3.216.883,3.9,3.9,0,0,1-3.073-1.257,5.145,5.145,0,0,1-1.117-3.536,5.045,5.045,0,0,1,1.221-3.509,3.915,3.915,0,0,1,3.032-1.356,3.469,3.469,0,0,1,2.8,1.171,4.884,4.884,0,0,1,.991,3.253Zm-1.514-1.253a3.007,3.007,0,0,0-.617-1.991,2.1,2.1,0,0,0-1.69-.712,2.388,2.388,0,0,0-1.775.748,3.393,3.393,0,0,0-.9,1.955Z" transform="translate(-25.072 -338.094)" fill="#59595c"/>
    <path id="Path_3" data-name="Path 3" d="M77.441,342.341H75.964v-5.316q0-2.883-2.145-2.883a2.339,2.339,0,0,0-1.82.833,3.107,3.107,0,0,0-.739,2.14v5.226H69.783V328.682h1.478v5.965H71.3a3.356,3.356,0,0,1,3.027-1.748q3.117,0,3.117,3.757Z" transform="translate(-48.501 -328.484)" fill="#59595c"/>
    <path id="Path_4" data-name="Path 4" d="M104,331.162a.936.936,0,0,1-.676-.27.912.912,0,0,1-.279-.685.946.946,0,0,1,.955-.964.956.956,0,0,1,.689.275.963.963,0,0,1,0,1.365A.946.946,0,0,1,104,331.162Zm.721,8.992q0,1.27.982,1.271a2.371,2.371,0,0,0,.712-.1v1.333a4.207,4.207,0,0,1-.455.086,4.262,4.262,0,0,1-.6.041,2.356,2.356,0,0,1-.829-.144,1.761,1.761,0,0,1-.671-.441,2.154,2.154,0,0,1-.451-.743,2.968,2.968,0,0,1-.167-1.041V333.5h1.478Z" transform="translate(-71.622 -328.874)" fill="#59595c"/>
    <path id="Path_5" data-name="Path 5" d="M124.209,351.528a4.8,4.8,0,0,1-2.523.64,4.177,4.177,0,0,1-3.185-1.284,4.654,4.654,0,0,1-1.212-3.329,5.115,5.115,0,0,1,1.306-3.662,4.57,4.57,0,0,1,3.487-1.383,4.852,4.852,0,0,1,2.144.45v1.514a3.759,3.759,0,0,0-2.2-.721,2.97,2.97,0,0,0-2.32,1.014,3.846,3.846,0,0,0-.905,2.662,3.663,3.663,0,0,0,.851,2.559,2.934,2.934,0,0,0,2.284.937,3.7,3.7,0,0,0,2.27-.8Z" transform="translate(-81.52 -338.094)" fill="#59595c"/>
    <path id="Path_6" data-name="Path 6" d="M148.459,339.764q0,1.27.982,1.271a2.373,2.373,0,0,0,.712-.1v1.333a4.182,4.182,0,0,1-.455.086,4.266,4.266,0,0,1-.6.041,2.355,2.355,0,0,1-.829-.144,1.761,1.761,0,0,1-.671-.441,2.155,2.155,0,0,1-.451-.743,2.969,2.969,0,0,1-.167-1.041V328.682h1.478Z" transform="translate(-102.157 -328.484)" fill="#59595c"/>
    <path id="Path_7" data-name="Path 7" d="M168.617,347.708H162.1a3.452,3.452,0,0,0,.829,2.378,2.858,2.858,0,0,0,2.181.838,4.534,4.534,0,0,0,2.865-1.027v1.387a5.354,5.354,0,0,1-3.217.883,3.9,3.9,0,0,1-3.073-1.257,5.145,5.145,0,0,1-1.117-3.536,5.045,5.045,0,0,1,1.221-3.509,3.915,3.915,0,0,1,3.032-1.356,3.47,3.47,0,0,1,2.8,1.171,4.884,4.884,0,0,1,.991,3.253Zm-1.514-1.253a3.006,3.006,0,0,0-.617-1.991,2.1,2.1,0,0,0-1.689-.712,2.388,2.388,0,0,0-1.775.748,3.394,3.394,0,0,0-.9,1.955Z" transform="translate(-111.602 -338.094)" fill="#59595c"/>
    <path id="Path_8" data-name="Path 8" d="M209.525,343.009v-1.784a3.464,3.464,0,0,0,.734.486,5.977,5.977,0,0,0,.9.365,7.106,7.106,0,0,0,.951.23,5.273,5.273,0,0,0,.883.081,3.454,3.454,0,0,0,2.086-.518,1.942,1.942,0,0,0,.46-2.4,2.583,2.583,0,0,0-.635-.707,6.351,6.351,0,0,0-.959-.613q-.554-.293-1.194-.617-.676-.343-1.261-.694a5.457,5.457,0,0,1-1.018-.775,3.229,3.229,0,0,1-.68-.96,3.272,3.272,0,0,1,.14-2.793,3.326,3.326,0,0,1,1.018-1.076,4.618,4.618,0,0,1,1.437-.631,6.578,6.578,0,0,1,1.644-.207,6.3,6.3,0,0,1,2.784.46v1.7a5.048,5.048,0,0,0-2.937-.793,4.841,4.841,0,0,0-.991.1,2.8,2.8,0,0,0-.883.338,1.958,1.958,0,0,0-.631.6,1.6,1.6,0,0,0-.243.9,1.853,1.853,0,0,0,.185.856,2.1,2.1,0,0,0,.545.658,5.4,5.4,0,0,0,.878.577q.518.28,1.194.613.693.343,1.315.721a6.029,6.029,0,0,1,1.09.838,3.723,3.723,0,0,1,.743,1.018,2.862,2.862,0,0,1,.275,1.28,3.244,3.244,0,0,1-.374,1.617,3.064,3.064,0,0,1-1.009,1.077,4.4,4.4,0,0,1-1.464.6,8.038,8.038,0,0,1-1.748.185,7.159,7.159,0,0,1-.757-.05q-.451-.05-.919-.144a7.474,7.474,0,0,1-.887-.234A2.746,2.746,0,0,1,209.525,343.009Z" transform="translate(-145.627 -329.674)" fill="#59595c"/>
    <path id="Path_9" data-name="Path 9" d="M248.042,351.951h-1.478V350.51h-.036a3.094,3.094,0,0,1-2.838,1.658,3.034,3.034,0,0,1-2.158-.73,2.529,2.529,0,0,1-.779-1.937q0-2.585,3.045-3.009l2.766-.387q0-2.352-1.9-2.352a4.544,4.544,0,0,0-3.009,1.135v-1.514a5.717,5.717,0,0,1,3.135-.865q3.252,0,3.252,3.442Zm-1.478-4.667-2.225.306a3.617,3.617,0,0,0-1.55.509,1.468,1.468,0,0,0-.523,1.293,1.408,1.408,0,0,0,.482,1.1,1.861,1.861,0,0,0,1.284.428,2.371,2.371,0,0,0,1.816-.77,2.751,2.751,0,0,0,.716-1.95Z" transform="translate(-167.331 -338.094)" fill="#59595c"/>
    <path id="Path_10" data-name="Path 10" d="M276.021,329.528a1.967,1.967,0,0,0-.982-.243q-1.55,0-1.55,1.955v1.424h2.162v1.261h-2.162v7.965h-1.469v-7.965h-1.577v-1.261h1.577v-1.5a3.108,3.108,0,0,1,.838-2.293,2.829,2.829,0,0,1,2.09-.842,2.893,2.893,0,0,1,1.072.162Z" transform="translate(-187.967 -328.032)" fill="#59595c"/>
    <path id="Path_11" data-name="Path 11" d="M298.7,347.708h-6.514a3.452,3.452,0,0,0,.829,2.378,2.857,2.857,0,0,0,2.18.838,4.534,4.534,0,0,0,2.866-1.027v1.387a5.355,5.355,0,0,1-3.217.883,3.9,3.9,0,0,1-3.072-1.257,5.145,5.145,0,0,1-1.117-3.536,5.044,5.044,0,0,1,1.221-3.509,3.914,3.914,0,0,1,3.032-1.356,3.469,3.469,0,0,1,2.8,1.171,4.883,4.883,0,0,1,.991,3.253Zm-1.514-1.253a3.006,3.006,0,0,0-.617-1.991,2.1,2.1,0,0,0-1.689-.712,2.388,2.388,0,0,0-1.775.748,3.393,3.393,0,0,0-.9,1.955Z" transform="translate(-202.013 -338.094)" fill="#59595c"/>
    <path id="Path_12" data-name="Path 12" d="M326.116,346.131a2.85,2.85,0,0,1-1.378.289q-2.424,0-2.424-2.7v-5.46h-1.586V337h1.586v-2.253l1.478-.478V337h2.325v1.261h-2.325v5.2a2.156,2.156,0,0,0,.315,1.325,1.26,1.26,0,0,0,1.045.4,1.553,1.553,0,0,0,.964-.306Z" transform="translate(-222.916 -332.364)" fill="#59595c"/>
    <path id="Path_13" data-name="Path 13" d="M349.087,343.218l-4.244,10.7q-1.135,2.865-3.19,2.865a3.4,3.4,0,0,1-.964-.117v-1.325a2.735,2.735,0,0,0,.874.162,1.811,1.811,0,0,0,1.676-1.333l.739-1.748-3.6-9.208h1.64l2.5,7.1q.045.135.189.7h.054q.045-.216.18-.685l2.622-7.118Z" transform="translate(-236.572 -338.587)" fill="#59595c"/>
  </g>
  <g id="Group_2" data-name="Group 2" transform="translate(0.774 76.527)">
    <path id="Path_14" data-name="Path 14" d="M6.121,265.48c-2.364,0-3.582-.924-3.582-3.4V255.81H5.333v6.511a.821.821,0,0,0,.842.924h5.983a.812.812,0,0,0,.842-.924V255.81h2.794v6.275c0,2.471-1.218,3.4-3.546,3.4ZM7.59,254.091a1.165,1.165,0,0,1-1.146-1.2,1.19,1.19,0,0,1,1.146-1.246,1.211,1.211,0,0,1,1.2,1.246A1.187,1.187,0,0,1,7.59,254.091Zm3.1,0a1.169,1.169,0,0,1-1.164-1.2,1.193,1.193,0,0,1,1.164-1.246,1.208,1.208,0,0,1,1.182,1.246A1.184,1.184,0,0,1,10.689,254.091Z" transform="translate(-2.539 -251.426)" fill="#59595c"/>
    <path id="Path_15" data-name="Path 15" d="M58.012,265.48H56.883c-2.329,0-3.546-.924-3.546-3.4V251.641h2.776v10.68a.821.821,0,0,0,.842.924h1.057Z" transform="translate(-37.845 -251.426)" fill="#59595c"/>
    <path id="Path_16" data-name="Path 16" d="M74.3,274.981a3.471,3.471,0,0,1-2.543-.838,3.984,3.984,0,0,1-2.7.838h-.86v-2.235h1.612a.968.968,0,0,0,.7-.258v-7.178H73.3v6.425a.9.9,0,0,0,.967,1.01h.967v2.235Zm-1.11,2.794a1.217,1.217,0,0,0-1.2-1.225,1.227,1.227,0,0,0,0,2.45A1.217,1.217,0,0,0,73.19,277.775Z" transform="translate(-48.171 -260.927)" fill="#59595c"/>
    <path id="Path_17" data-name="Path 17" d="M95.2,256.394c1.72.129,2.937,1.16,2.937,3.654v4.942h-8.1v-2.235h5.32v-3.309c0-.774-.466-1.032-1.218-1.032a5.073,5.073,0,0,0-2.024.516l-.018.022-.627.516-.645-2.213,6.5-6.318.9,2.966Z" transform="translate(-63.354 -250.936)" fill="#59595c"/>
    <path id="Path_18" data-name="Path 18" d="M123.37,271.822a.863.863,0,0,0,.949.924h.878v2.235h-.824a1.836,1.836,0,0,1-1-.193v.193c0,2.858-1.558,4.019-3.654,4.019a10.071,10.071,0,0,1-1.666-.172c.3-1.4.287-1.246.5-2.213a2.5,2.5,0,0,0,.573.043c1.074,0,1.468-.709,1.468-1.633v-9.713h2.776Z" transform="translate(-82.823 -260.927)" fill="#59595c"/>
    <path id="Path_19" data-name="Path 19" d="M140.66,277.5h1.272v-.43c0-2.837,1.325-4.921,3.69-4.921s3.69,2.084,3.69,4.921a3.43,3.43,0,0,1-.018.43h.967v2.235h-1.433a3.408,3.408,0,0,1-6.43,0H140.66Zm5.875-.473c0-1.59-.161-2.794-.913-2.794-.77,0-.931,1.2-.931,2.794s.179,2.729.931,2.729S146.535,278.614,146.535,277.024Z" transform="translate(-98.538 -265.678)" fill="#59595c"/>
    <path id="Path_20" data-name="Path 20" d="M171.314,263.245h1.576c.609,0,.824-.451.824-.924v-10.68h2.794v10.444c0,2.471-1.218,3.4-3.546,3.4h-1.648Z" transform="translate(-119.843 -251.426)" fill="#59595c"/>
    <path id="Path_21" data-name="Path 21" d="M195.686,265.48V251.641h2.776V265.48Z" transform="translate(-136.782 -251.426)" fill="#59595c"/>
    <path id="Path_22" data-name="Path 22" d="M223.758,265.921c-1.9,0-3.35-1.7-3.35-4.513,0-3.245,1.433-5.2,4.3-5.2a5.488,5.488,0,0,1,3.045.731v6.748h1.863v2.235Zm.34-12.421a1.183,1.183,0,1,0-2.364,0,1.183,1.183,0,1,0,2.364,0Zm.949,4.728a1.179,1.179,0,0,0-.519-.086c-.967,0-1.343.9-1.343,3.03,0,2.041.466,2.514,1.4,2.514h.484Zm2.131-4.728a1.183,1.183,0,1,0-2.364,0,1.183,1.183,0,1,0,2.364,0Z" transform="translate(-153.965 -251.867)" fill="#59595c"/>
    <path id="Path_23" data-name="Path 23" d="M249.77,272.354h2.418a6.925,6.925,0,0,1-.483-2.707c0-2.837,1.343-4.9,3.69-4.9,2.382,0,3.708,2.063,3.708,4.9,0,2.858-1.343,4.942-3.708,4.942H249.77Zm6.556-2.751c0-1.59-.161-2.793-.931-2.793s-.932,1.2-.932,2.793c0,1.612.179,2.729.932,2.729C256.165,272.333,256.326,271.216,256.326,269.6Z" transform="translate(-174.373 -260.535)" fill="#59595c"/>
    <path id="Path_24" data-name="Path 24" d="M295.127,262.272a.821.821,0,0,0,.842.924h1.487v2.235H295.9a4.146,4.146,0,0,1-2.239-.451,3.25,3.25,0,0,1-1.737.451h-4.8V263.2h.985V252.623h2.615V263.2h.7c.609,0,.913-.3.913-1.182V251.57h2.794Z" transform="translate(-200.333 -251.377)" fill="#59595c"/>
    <path id="Path_25" data-name="Path 25" d="M326.463,274.981a3.38,3.38,0,0,1-2.364-.838,3.983,3.983,0,0,1-2.7.838h-.86v-2.235h1.612a.968.968,0,0,0,.7-.258v-7.178h2.794v7.328a1.091,1.091,0,0,0,.7.236.892.892,0,0,0,.949-.988v-6.576h2.794v7.328a1.127,1.127,0,0,0,.7.236.9.9,0,0,0,.967-.988v-6.576h2.776v6.554a2.847,2.847,0,0,1-2.991,3.095,3.876,3.876,0,0,1-2.7-.838A3.315,3.315,0,0,1,326.463,274.981Z" transform="translate(-223.556 -260.927)" fill="#59595c"/>
  </g>
  <g id="Group_5" data-name="Group 5" transform="translate(25.159)">
    <g id="Group_3" data-name="Group 3" transform="translate(19.501 26.307)">
      <path id="Path_26" data-name="Path 26" d="M152.246,94.5a35.124,35.124,0,0,1,4.48-8.244h10.631s3.448,4.48,4.473,8.244Z" transform="translate(-150.475 -86.261)" fill="#59595c"/>
      <path id="Path_27" data-name="Path 27" d="M151.526,119.992H147.4l-.957,3.9s.2.173,1.591.28,5.043.2,5.172.194C152.644,122.841,151.526,119.992,151.526,119.992Z" transform="translate(-146.44 -109.705)" fill="#59595c"/>
      <path id="Path_28" data-name="Path 28" d="M202,119.992h4.129l.957,3.9s-.2.173-1.592.28-5.043.2-5.172.194C200.885,122.841,202,119.992,202,119.992Z" transform="translate(-183.892 -109.705)" fill="#59595c"/>
    </g>
    <g id="Group_4" data-name="Group 4">
      <path id="Path_29" data-name="Path 29" d="M112.517,14.6V.014A77.615,77.615,0,0,0,101.1,10.656a73.785,73.785,0,0,0-6.82,9.078c-.694,1.077-1.34,2.17-1.968,3.268s-1.263,2.2-1.848,3.329a74.025,74.025,0,0,0-4.459,10.452,77.461,77.461,0,0,0-3.512,15.2l13.487-7.771C96.666,27.3,108.627,17.386,112.517,14.6Z" transform="translate(-82.496 -0.01)" fill="#529b44"/>
      <path id="Path_30" data-name="Path 30" d="M131.675,148.636c-14.118,5-22.612,2.766-31.216.281l-14.206,8.248a78.1,78.1,0,0,0,14.951,4.548,75.316,75.316,0,0,0,11.27,1.33c1.276.055,2.553.07,3.811.055,1.265.01,2.534-.009,3.81-.069a74.517,74.517,0,0,0,11.273-1.387,77.74,77.74,0,0,0,14.923-4.594Z" transform="translate(-85.107 -103.307)" fill="#8b5422"/>
      <path id="Path_31" data-name="Path 31" d="M204.506,44.2,218,51.973a77.543,77.543,0,0,0-3.512-15.2,73.793,73.793,0,0,0-4.46-10.451c-.592-1.134-1.217-2.243-1.849-3.329s-1.274-2.191-1.965-3.268a73.944,73.944,0,0,0-6.818-9.078A77.693,77.693,0,0,0,187.971,0V14.529C201.519,25.676,203.608,35.977,204.506,44.2Z" transform="translate(-155.805)" fill="#0395b5"/>
    </g>
  </g>
</svg>
